<svg width="25" height="36" viewBox="0 0 25 36" fill="none" xmlns="http://www.w3.org/2000/svg">
<path d="M23.7917 32.6909C24.1733 32.5298 24.3521 32.0899 24.1909 31.7083L21.5654 25.4898C21.4043 25.1082 20.9643 24.9295 20.5827 25.0906C20.2011 25.2517 20.0224 25.6917 20.1835 26.0733L22.5173 31.6008L16.9898 33.9346C16.6082 34.0957 16.4295 34.5357 16.5906 34.9173C16.7517 35.2989 17.1917 35.4776 17.5733 35.3165L23.7917 32.6909ZM0.275079 1.19233C1.37499 5.33815 3.8271 11.8576 7.62437 18.0066C11.4139 24.143 16.6032 30.0077 23.2177 32.6948L23.7823 31.3052C17.5968 28.7923 12.6194 23.2403 8.90063 17.2184C5.18957 11.2091 2.79167 4.82851 1.72492 0.807674L0.275079 1.19233Z" fill="#6DE5D2"/>
</svg>
