<svg width="178" height="42" viewBox="0 0 178 42" fill="none" xmlns="http://www.w3.org/2000/svg">
<path fill-rule="evenodd" clip-rule="evenodd" d="M16.1639 2.01894C15.6168 2.27913 12.5989 4.235 12.2676 4.54392C12.1812 4.62476 12.7167 11.638 12.8161 11.7244C12.8903 11.7889 13.6419 11.3211 15.1847 10.2506C16.9551 9.02185 18.3949 8.56143 19.6776 8.81379C20.5504 8.98533 28.2811 12.704 29.0388 13.3166C29.3574 13.5742 29.8388 14.1378 30.1083 14.569L30.5987 15.353L31.0018 20.4106C31.3816 25.177 31.3891 25.5209 31.1335 26.3833C30.98 26.9011 30.6035 27.599 30.2662 27.9908C29.637 28.722 22.9809 33.3046 21.8124 33.811C20.9782 34.1726 19.6352 34.2734 18.7917 34.0376C18.4358 33.9383 16.3526 32.9791 14.1622 31.9061C9.82119 29.7797 9.14568 29.2966 8.48397 27.8454C8.10374 27.0116 8.06589 26.6435 7.44068 17.7027C6.99765 11.3671 6.73804 8.4291 6.62191 8.43722C6.25025 8.46321 2.79306 10.9406 2.22367 11.5889C1.88986 11.9691 1.45374 12.7024 1.25416 13.2186L0.891634 14.157L1.48955 22.7077L2.08747 31.2583L2.57194 32.1246C3.54068 33.8566 3.4024 33.7657 9.79967 36.8774C12.2411 38.0648 15.233 39.5235 16.4484 40.1188C19.5158 41.6215 20.5227 41.7994 22.2662 41.1459C22.6989 40.9837 24.7053 39.7323 26.725 38.3649C28.7448 36.9973 31.6511 35.0424 33.1836 34.0205C36.1384 32.0499 36.9581 31.2834 37.5646 29.9231L37.9414 29.0785L37.3207 20.2021L36.7 11.3257L36.1512 10.4798C35.8493 10.0145 35.2521 9.3743 34.8242 9.05693C34.3961 8.73973 31.9496 7.4627 29.3872 6.21914C26.8248 4.97557 23.737 3.47447 22.5254 2.88326C21.3139 2.29204 20.0674 1.7396 19.7556 1.65551C18.9123 1.42839 16.998 1.62215 16.1639 2.01894ZM42.7199 19.0062L43.3918 28.6155L45.5091 28.4674L47.6264 28.3194L47.5799 27.6541L47.5334 26.9887L48.3027 27.576C50.6603 29.3756 54.9137 28.5363 57.0142 25.857C58.1469 24.4122 58.6712 22.4309 58.5144 20.1883C58.2361 16.2083 55.6738 13.4471 51.9433 13.1069C50.2181 12.9495 48.3163 13.5134 47.3789 14.4602L46.8578 14.9865L46.6516 12.038L46.4454 9.08946L44.2467 9.24321L42.0479 9.39696L42.7199 19.0062ZM58.6274 8.36036C58.5987 8.42996 58.6006 8.65061 58.6316 8.85106C58.6628 9.0515 58.9843 13.319 59.3463 18.3346L60.0045 27.4538L62.1218 27.3058L64.239 27.1577L63.5671 17.5484L62.8952 7.93918L60.7875 8.08656C59.6282 8.16763 58.6563 8.29075 58.6274 8.36036ZM96.1409 15.2707L96.8128 24.8799L98.9301 24.7319L101.047 24.5838L100.808 21.154C100.676 19.2676 100.632 17.7579 100.711 17.7992C100.789 17.8407 101.832 19.317 103.027 21.0801L105.2 24.2857L107.68 24.1161L110.161 23.9465L107.707 20.7221C104.376 16.3447 104.364 16.3274 104.443 16.107C104.481 16.0002 105.56 14.5138 106.841 12.804C108.121 11.0942 109.166 9.64027 109.162 9.57295C109.158 9.50564 108.058 9.52738 106.718 9.6211C103.864 9.82064 104.386 9.44585 102.175 12.8834C101.332 14.1949 100.587 15.2752 100.52 15.2841C100.453 15.293 100.242 13.0649 100.051 10.3328L99.7035 5.36529L97.5862 5.51334L95.4689 5.6614L96.1409 15.2707ZM165.179 3.15245L165.343 5.50671L164.247 5.63164L163.151 5.75672L163.215 7.3403L163.279 8.92402L164.388 8.89496L165.496 8.86604L165.929 14.4413L166.362 20.0166L168.475 19.8688L170.588 19.7211L170.241 14.1398L169.894 8.55854L170.871 8.48499L171.847 8.41145L171.777 6.74401L171.708 5.07657L170.643 5.151L169.579 5.22542L169.414 2.86383L169.249 0.502227L167.131 0.650283L165.014 0.798339L165.179 3.15245ZM15.3579 15.251C12.7943 16.9609 12.199 17.43 11.9965 17.9001C11.7839 18.3932 11.7845 18.9616 12.0011 22.0545C12.2284 25.3006 12.2848 25.6837 12.6005 26.1284C12.8418 26.4683 13.5912 26.9269 15.0365 27.6189C16.1845 28.1688 17.6567 28.8835 18.308 29.2072C19.7568 29.9271 20.2398 29.913 21.439 29.1154C25.0155 26.7368 26.6074 25.6078 26.8302 25.2921C27.0579 24.9693 27.0563 24.4761 26.8165 20.9996C26.5634 17.3314 26.5222 17.0463 26.195 16.6852C25.7369 16.1797 19.3826 13.1095 18.8689 13.1454C18.6512 13.1607 17.0713 14.1081 15.3579 15.251ZM86.0453 10.7572C82.3544 11.6406 79.8779 15.403 80.4268 19.2929C80.6486 20.8635 81.2272 22.1241 82.2768 23.3223C86.0513 27.6315 93.0741 26.4199 95.2892 21.0775C95.573 20.3928 95.7982 19.7327 95.7897 19.6104C95.7773 19.4339 95.3378 19.4185 93.6573 19.536L91.5405 19.684L90.8222 20.5362C89.7776 21.7755 88.402 22.1773 86.9956 21.6535C85.6375 21.1478 84.8631 20.035 84.7444 18.4185C84.5559 15.8546 86.4728 14.1446 88.9775 14.6425C89.4255 14.7314 89.9188 15.0293 90.4943 15.5583L91.3469 16.3424L93.4032 16.1986L95.4592 16.0548L95.3896 15.67C95.246 14.8776 94.1587 13.2484 93.2411 12.4507C92.1021 11.4606 90.2644 10.6801 88.7734 10.5533C87.556 10.4497 87.2279 10.4741 86.0453 10.7572ZM114.7 8.74605C113.488 9.04849 112.265 9.78296 111.321 10.7753C107.85 14.4236 109.083 21.3944 113.546 23.3521C116.105 24.4748 119.24 24.0408 120.699 22.3622L121.15 21.8436L121.197 22.5076L121.243 23.1716L123.444 23.0177L125.644 22.8639L125.098 15.6599L124.551 8.45589L122.434 8.60395L120.317 8.752L120.33 9.32391C120.337 9.63846 120.34 9.9399 120.336 9.99387C120.332 10.0478 120.007 9.83422 119.614 9.51901C118.465 8.5982 116.52 8.2923 114.7 8.74605ZM129.814 7.67269C128.2 8.07786 126.821 9.16365 126.203 10.5152C125.442 12.1802 125.685 13.6951 126.897 14.8379C127.684 15.5805 128.065 15.7512 130.758 16.5637C133.192 17.2984 133.71 17.6997 133.426 18.6298C133.319 18.9819 132.57 19.4336 132.032 19.4712C131.395 19.5157 130.634 19.1236 130.488 18.6761L130.358 18.2789L128.181 18.4311L126.004 18.5834L126.134 19.1062C126.395 20.1534 127.177 21.284 128.054 21.8829C130.138 23.3059 133.591 23.2374 135.8 21.7293C136.579 21.1978 136.967 20.7299 137.423 19.7739L137.774 19.0381L138.289 19.8448C140.162 22.7784 145.895 22.8864 148.218 20.0315C149.004 19.0661 149.287 18.1291 149.193 16.7982C149.12 15.7498 149.035 15.4698 148.591 14.8226C147.898 13.8125 146.962 13.338 144.428 12.7118C141.744 12.0487 141.161 11.6013 141.735 10.6459C141.919 10.3398 142.121 10.2551 142.776 10.2093C143.508 10.1581 143.619 10.1988 143.9 10.6207L144.212 11.0888L146.306 10.9434L148.401 10.7979L148.246 10.204C147.984 9.19769 147.244 8.14727 146.413 7.59999C145.249 6.83374 144.166 6.59834 142.434 6.73486C141.168 6.83454 140.829 6.92683 139.933 7.41468C138.063 8.43247 137.172 9.88825 137.3 11.7143C137.347 12.3963 137.488 12.9236 137.73 13.3257C138.425 14.4807 139.229 14.8913 142.983 16.0069C144.426 16.4357 144.853 16.7526 144.9 17.4281C144.927 17.8073 144.819 18.0011 144.428 18.2789C143.564 18.8923 142.374 18.7318 141.958 17.9455L141.715 17.4848L139.821 17.6172L137.928 17.7496L137.664 16.7749C137.222 15.1378 136.131 14.2991 133.675 13.7064C131.488 13.1789 130.954 13.0012 130.533 12.6605C129.752 12.0298 130.153 11.092 131.236 11.0163C132.035 10.9604 132.344 11.0792 132.548 11.5196C132.718 11.8871 132.763 11.8915 134.843 11.746C136.009 11.6645 136.96 11.5361 136.954 11.4607C136.949 11.3853 136.816 10.9826 136.658 10.5655C135.905 8.5785 134.182 7.51568 131.686 7.49842C131.055 7.49406 130.213 7.57244 129.814 7.67269ZM154.507 5.96137C152.66 6.4051 150.616 8.10103 149.7 9.95053C149.148 11.0642 148.827 12.7406 148.92 14.0314C149.069 16.1061 149.925 17.8292 151.48 19.1873C155.341 22.5578 160.87 21.4473 163.255 16.8229C163.54 16.2701 163.77 15.7723 163.766 15.7168C163.762 15.6614 162.782 15.6843 161.588 15.7678C159.497 15.914 159.406 15.935 159.072 16.3437C157.878 17.8072 155.012 17.7973 153.912 16.3257C153.68 16.0152 153.43 15.5998 153.356 15.4023L153.222 15.0435L158.689 14.6612L164.156 14.2789L164.073 13.0945C163.797 9.1454 160.935 6.10629 157.179 5.77371C155.974 5.66693 155.632 5.69105 154.507 5.96137ZM69.4131 12.2104C68.1832 12.7046 67.6915 13.0342 66.7826 13.974C65.269 15.5391 64.551 17.5762 64.7103 19.8541C65.0545 24.7755 69.3086 27.8937 74.2191 26.8238C77.9154 26.0184 80.2343 23.0304 80.1716 19.1536C80.114 15.5899 77.8101 12.6546 74.4474 11.8605C73.1101 11.5447 70.6438 11.7161 69.4131 12.2104ZM157.659 9.59691C158.591 9.98871 159.501 10.9011 159.542 11.4837C159.55 11.5972 158.487 11.7293 156.378 11.8768C153.506 12.0776 153.2 12.0725 153.183 11.824C153.149 11.3411 153.799 10.4439 154.526 9.96969C155.376 9.41513 156.818 9.24342 157.659 9.59691ZM51.4809 17.2578C53.8096 17.7324 54.9967 20.8947 53.6149 22.9422C52.4394 24.6837 49.9128 25.0638 48.4122 23.7247C47.1196 22.5714 46.7552 20.9095 47.4476 19.3254C48.1652 17.6836 49.7027 16.8954 51.4809 17.2578ZM73.6867 15.9829C76.4084 17.0934 76.6974 20.9601 74.1701 22.4481C73.1327 23.0587 72.2776 23.1133 71.1378 22.6414C68.0681 21.3707 68.3442 16.8052 71.5493 15.8428C72.1584 15.6598 73.0361 15.7174 73.6867 15.9829ZM118.235 12.6682C119.708 13.0749 120.61 14.2531 120.733 15.933C120.829 17.2286 120.326 18.4978 119.451 19.1688C118.725 19.7261 117.163 20.0123 116.193 19.7657C114.913 19.4403 113.791 17.9778 113.686 16.4987C113.498 13.8384 115.715 11.9722 118.235 12.6682ZM173.207 17.3284L173.361 19.5271L175.56 19.3734L177.759 19.2196L177.605 17.0209L177.451 14.8222L175.252 14.9759L173.054 15.1297L173.207 17.3284Z" fill="#020A03"/>
</svg>
