<svg width="186" height="47" viewBox="0 0 186 47" fill="none" xmlns="http://www.w3.org/2000/svg">
<path fill-rule="evenodd" clip-rule="evenodd" d="M43.0134 1.15895C43.1567 2.27551 42.6879 4.11468 42.1226 4.65355C41.6861 5.06972 41.8301 5.34061 42.3907 5.15778C42.8275 5.01544 42.9086 5.06232 42.9375 5.47463C42.9831 6.12759 42.12 8.16308 41.6543 8.50048C41.1666 8.85406 41.1946 9.09601 41.7193 9.05932C41.949 9.04326 42.1406 9.08158 42.145 9.14471C42.1697 9.49889 41.4569 10.744 40.6758 11.7106L39.7792 12.8201L40.4589 12.638C41.2078 12.4376 41.2057 12.4742 40.4032 13.7119C40.1464 14.108 39.3597 14.8696 38.655 15.4044L37.3738 16.3769L38.0637 16.4333L38.7535 16.4897L37.7844 17.4685C36.5356 18.7297 35.3782 19.5136 33.9474 20.0674C32.9704 20.4454 32.8601 20.5393 33.2027 20.7002C33.5693 20.8727 33.5442 20.9328 32.917 21.3803C32.2223 21.8759 31.7999 22.0409 29.5586 22.6924L28.3248 23.051L29.6986 23.1945C31.565 23.3895 32.0276 23.5267 31.9269 23.8558C31.8648 24.0582 32.2031 24.1459 33.1665 24.1772C33.9974 24.2041 34.9748 24.4209 35.788 24.7589C37.3455 25.4062 38.5866 26.2343 38.057 26.2728C37.3272 26.3259 37.5266 26.7144 38.4881 27.1123C39.0357 27.3391 40.0346 27.9985 40.708 28.578C41.699 29.4305 41.8737 29.6698 41.6249 29.8325C41.3747 29.9961 41.5006 30.1797 42.3011 30.8188C42.842 31.2508 43.6088 32.1521 44.0048 32.8218C44.7165 34.025 44.9854 34.9383 44.5626 34.7169C44.4428 34.6541 44.2519 34.6693 44.1382 34.7509C44.0157 34.8389 44.2215 35.1854 44.6452 35.6038C45.4702 36.419 46.4754 38.1375 46.526 38.8192C46.5504 39.1472 46.4374 39.2964 46.1495 39.3166C45.7586 39.3439 45.766 39.3809 46.3009 40.0599C46.9024 40.8237 47.2908 41.9641 47.1292 42.4915C47.0621 42.711 46.7382 42.8346 46.1155 42.8781C45.0155 42.955 44.0311 42.7128 42.9235 42.0928C42.0166 41.5853 41.7416 41.6588 42.1457 42.3003C42.3638 42.6466 42.3492 42.7228 42.0606 42.743C41.282 42.7974 40.0114 42.3603 39.1973 41.758C38.202 41.0215 37.9949 40.9765 38.2208 41.5459C38.3097 41.77 38.3256 41.9573 38.2558 41.9622C37.8716 41.9891 36.3111 41.1504 35.4988 40.4805C34.9835 40.0557 34.5284 39.7105 34.4875 39.7133C34.4466 39.7162 34.4884 39.9488 34.5805 40.2302C34.6813 40.5381 34.6587 40.7482 34.5238 40.7576C34.0993 40.7873 32.6531 39.5251 31.7748 38.3584C31.1174 37.4854 30.8674 37.2776 30.7878 37.5376C30.7291 37.7293 30.7554 38.0457 30.846 38.2407C31.1359 38.8638 29.4019 37.2905 28.5129 36.1241C28.0432 35.5075 27.4504 34.4737 27.1955 33.8268C26.7848 32.7838 26.7048 32.6941 26.4893 33.0356C26.2689 33.3851 26.1997 33.3433 25.743 32.5857C25.4662 32.1264 24.9972 30.91 24.7008 29.8826C24.4045 28.8553 24.1248 27.9823 24.0792 27.9428C24.0336 27.9033 23.9753 28.5116 23.9496 29.2945C23.9083 30.5544 23.4814 32.425 23.3896 31.7485C23.3704 31.606 23.2734 31.4949 23.1743 31.5018C23.0751 31.5087 22.9876 32.1277 22.9798 32.8773C22.964 34.3852 22.402 36.0197 21.4681 37.2739C20.9395 37.9838 20.8892 38.0087 20.8513 37.5788C20.7877 36.8578 20.4901 37.0429 20.124 38.0314C19.9415 38.5242 19.2871 39.5358 18.67 40.279C17.7693 41.3637 17.5052 41.5723 17.3328 41.3354C17.1584 41.0957 16.9452 41.2388 16.1982 42.0962C15.28 43.1499 13.5832 44.3156 12.8975 44.3635C12.6979 44.3775 12.4926 44.2053 12.4399 43.9795C12.3531 43.6081 12.2622 43.6461 11.4572 44.3893C9.90448 45.8233 7.83919 46.6607 7.78449 45.8784C7.7677 45.6384 7.56018 45.6983 6.82833 46.1546C5.75126 46.8262 4.61391 46.9928 4.3891 46.5115C3.99058 45.6584 4.29465 43.8226 5.0341 42.6167C5.51964 41.8246 5.50575 41.7399 4.8975 41.7825C4.41788 41.816 4.40329 41.7814 4.53324 40.9182C4.6758 39.9713 5.43104 38.5111 5.9672 38.1458C6.21695 37.9757 6.16136 37.9369 5.70624 37.9637L5.12804 37.9978L5.56581 36.9727C5.8065 36.4088 6.32371 35.5955 6.71515 35.1651L7.42692 34.3826L6.85628 34.3178L6.28585 34.253L6.92856 33.29C7.282 32.7603 8.1502 31.9222 8.85777 31.4278C10.0769 30.5759 10.1096 30.5311 9.48008 30.5751C9.11488 30.6007 8.80987 30.5357 8.80254 30.4309C8.75549 29.758 12.7675 26.7861 13.8223 26.7123C14.0196 26.6985 14.2328 26.5894 14.2957 26.4698C14.3587 26.3503 14.3106 26.2594 14.1891 26.2679C14.0676 26.2764 13.9613 26.1882 13.9532 26.0719C13.9266 25.6923 15.1359 25.0025 16.4373 24.6552C19.4265 23.8575 19.7826 23.7262 19.336 23.5872C19.1022 23.5144 18.4401 23.474 17.8647 23.4973C16.692 23.545 15.3038 23.2089 15.3481 22.888C15.3641 22.7721 14.8988 22.6478 14.3142 22.6117C12.8741 22.5225 11.2084 22.0058 10.095 21.3028C9.05058 20.6432 8.94484 20.4153 9.61271 20.2623C9.99599 20.1743 9.87698 20.0687 8.93181 19.659C7.1343 18.8796 4.91233 16.8672 5.782 16.8064C5.91354 16.7972 5.49845 16.3101 4.85946 15.724C3.80276 14.7544 2.54957 12.9224 2.49912 12.2729C2.48786 12.1299 2.66674 11.9995 2.89642 11.9834C3.4343 11.9458 3.40859 11.6951 2.81983 11.2361C2.00872 10.6041 1.00796 8.92522 0.947875 8.09595C0.902226 7.46414 0.956354 7.34102 1.24236 7.42821C1.51207 7.51048 1.45362 7.33179 0.989326 6.6543C0.657286 6.16982 0.296741 5.3917 0.188141 4.92488C-0.00855175 4.08045 -0.00596386 4.07546 0.730748 3.88367C1.52864 3.67566 2.98397 3.8735 3.77527 4.29719C4.04493 4.44184 4.52739 4.70394 4.8471 4.88006L5.42865 5.19992L5.24617 4.64279C5.08339 4.14521 5.1211 4.08144 5.59655 4.04819C6.37915 3.99347 7.4295 4.40114 8.39476 5.13424L9.24591 5.78091L9.09943 5.22838L8.95293 4.67565L9.95732 5.09826C10.5097 5.33076 11.4 5.89889 11.9361 6.36073L12.9107 7.20059L12.7243 6.50933L12.538 5.81827L13.1369 6.14131C14.131 6.67727 14.8238 7.31533 15.5536 8.36701C16.3384 9.49818 16.5784 9.60345 16.5216 8.79133L16.4824 8.22963L17.2751 8.89566C18.3995 9.84041 19.4571 11.3277 20.099 12.8664C20.4902 13.8044 20.6844 14.0823 20.765 13.8191C20.8276 13.6148 20.9544 13.4424 21.0467 13.436C21.3401 13.4155 22.1555 15.0821 22.6549 16.723C22.9205 17.5952 23.1716 18.2702 23.213 18.2227C23.2544 18.1753 23.3765 17.4947 23.4845 16.7106C23.699 15.154 23.8089 14.8949 24.0898 15.2846C24.2002 15.4379 24.2918 15.0075 24.317 14.2158C24.3623 12.7929 25.2802 10.181 25.9965 9.43709C26.3815 9.0375 26.3973 9.03849 26.5969 9.47928C26.7862 9.89795 26.827 9.86327 27.1406 9.01603C27.3272 8.51224 27.963 7.51685 28.5536 6.80413C29.5905 5.55248 30.1187 5.1969 30.1557 5.72588C30.1655 5.86527 30.6332 5.46324 31.1949 4.83293C32.2151 3.68797 33.3414 2.88042 34.3756 2.55289C34.8377 2.40648 34.9396 2.45316 35.0259 2.85036C35.1274 3.31788 35.1336 3.3162 35.8145 2.63254C36.7767 1.66624 38.0674 0.940157 38.9293 0.879884C39.5319 0.837745 39.6422 0.892846 39.5508 1.19109C39.4592 1.49018 39.5686 1.46097 40.1782 1.02348C41.0421 0.403651 41.8651 0.0594842 42.4547 0.0718501C42.8069 0.0792557 42.8975 0.255069 43.0134 1.15895ZM10.2331 11.4181C14.1444 14.6623 18.7676 18.783 20.4225 20.4998C22.203 22.3471 23.0703 23.3412 22.9773 23.4283C22.9352 23.4679 22.3297 23.9432 21.6317 24.4846C17.8177 27.4431 12.3864 33.8591 9.94625 38.289C9.45156 39.1872 9.05175 39.9961 9.05808 40.0865C9.06438 40.1767 10.1333 38.9714 11.4334 37.408C14.5425 33.6691 16.1007 31.8836 18.5796 29.2195C20.6225 27.024 23.262 24.5863 23.6231 24.5619C23.7277 24.5547 24.1027 24.9422 24.4565 25.4231C26.349 27.9957 32.7277 33.7027 36.5625 36.2542C38.3934 37.4724 40.5704 38.5864 40.74 38.392C40.778 38.3481 39.4624 37.2846 37.8159 36.0286C33.8768 33.0235 27.9304 27.7422 26.1441 25.6621C25.3606 24.7494 24.7151 23.9424 24.71 23.8686C24.7048 23.7949 25.3486 23.2131 26.1408 22.5759C30.1347 19.3632 36.5344 11.6728 38.1051 8.19824C38.418 7.50597 38.635 6.90605 38.5874 6.86478C38.5398 6.82352 37.4223 8.18903 36.1042 9.89938C31.7928 15.4936 25.1217 22.5933 24.1385 22.634C24.0019 22.6398 23.3506 21.9551 22.6912 21.1127C20.4776 18.2846 15.2672 13.681 11.4538 11.1836C9.75887 10.0738 7.6893 8.92657 7.41639 8.94566C7.33308 8.95148 8.60059 10.0642 10.2331 11.4181ZM151.659 3.21179C151.836 2.42654 152.452 1.68292 153.138 1.42856C154.127 1.06158 155.406 1.44067 156 2.27694C156.93 3.58713 156.183 5.34911 154.512 5.78495C153.016 6.17565 151.333 4.65878 151.659 3.21179ZM176.48 6.35002L176.345 4.41857L176.209 2.48712L178.414 2.37994L180.619 2.27275L180.698 3.87108C180.741 4.75017 180.836 5.59592 180.908 5.75031C181.018 5.98703 181.273 6.01483 182.529 5.92704L184.018 5.82286L184.136 7.49815L184.253 9.17345L182.763 9.27763C181.559 9.36183 181.257 9.43393 181.19 9.65396C181.059 10.0809 181.576 16.7771 181.795 17.4887C182.065 18.368 182.243 18.4768 183.433 18.49L184.472 18.5015L184.906 20.0294C185.146 20.8697 185.304 21.5997 185.259 21.6518C185.214 21.704 184.701 21.8594 184.12 21.9972C181.852 22.5347 179.416 22.0836 178.41 20.94C177.523 19.9317 177.381 19.245 177.034 14.2811L176.714 9.70062L175.625 9.77677L174.536 9.85291L174.419 8.17761L174.302 6.50232L175.391 6.42617L176.48 6.35002ZM54.421 23.039C54.1223 19.051 55.8066 16.0002 59.0123 14.7227C60.9759 13.9401 64.3605 14.0211 66.0031 14.8898C67.5124 15.6879 68.8653 17.4581 69.1677 19.0307L69.3036 19.7367L67.1416 19.8879C65.2638 20.0192 64.9772 20.0036 64.9608 19.7687C64.9264 19.278 64.1184 18.2367 63.5337 17.9294C62.7612 17.5237 61.3302 17.6071 60.6069 18.1002C59.278 19.0063 58.6908 20.8743 59.0072 23.1892C59.3016 25.3435 60.4599 26.9251 61.8622 27.088C62.198 27.127 62.8216 27.0861 63.248 26.997C64.1694 26.8044 64.9585 26.0077 65.2287 24.9972L65.403 24.3458L67.4757 24.2009L69.5486 24.0559L69.5381 24.7028C69.5055 26.7168 67.9816 29.0087 66.0894 29.8895C64.7443 30.5157 62.0486 30.8347 60.4939 30.5515C56.9942 29.9144 54.7259 27.1084 54.421 23.039ZM75.1733 15.4542C75.5518 14.5911 76.1519 13.8823 76.8908 13.4249C77.2068 13.2292 77.8256 13.0913 78.6728 13.0277L79.9707 12.9302L80.1093 14.913L80.248 16.8955L78.9144 16.9115C77.2528 16.9314 76.3002 17.3987 75.6773 18.4991L75.2751 19.2096L75.5496 24.3378L75.824 29.4659L73.6075 29.6678L71.391 29.8698L70.8283 21.8235L70.2657 13.7772L72.4436 13.6249L74.6214 13.4726L74.726 14.8542L74.8303 16.2358L75.1733 15.4542ZM80.5805 16.9808C81.3218 15.0575 82.9043 13.5126 84.8279 12.8345C85.9051 12.455 88.5761 12.2766 89.7959 12.5028C90.355 12.6066 91.2336 12.9049 91.7485 13.1659C96.0807 15.3623 97.2253 22.6862 93.8273 26.4672C92.4842 27.9618 90.8529 28.6675 88.3349 28.8436C84.9657 29.0792 82.3844 27.6873 80.9764 24.8757C80.4306 23.7859 80.3052 23.3352 80.1316 21.842C79.8904 19.7649 80.011 18.4585 80.5805 16.9808ZM97.1567 14.3399C97.6984 13.3141 98.807 12.3999 100.157 11.8656C101.435 11.3601 104.401 11.1034 105.844 11.3735C107.213 11.6295 108.624 12.4406 109.302 13.3602C109.876 14.1402 110.371 15.3068 110.206 15.4955C110.155 15.5543 109.226 15.6962 108.142 15.8111L106.17 16.0197L105.929 15.5372C105.174 14.0227 101.768 14.168 101.18 15.7397C100.979 16.2789 101.257 16.8585 101.888 17.2112C102.129 17.3461 103.266 17.5767 104.414 17.7236C107.142 18.0726 108.375 18.3985 109.39 19.0398C110.589 19.7964 110.872 20.3272 110.991 22.0405C111.07 23.1785 111.027 23.6065 110.775 24.1714C110.12 25.6402 108.435 26.9149 106.471 27.427C105.103 27.784 101.841 27.8427 100.857 27.5282C98.7736 26.8624 97.4087 25.6212 96.8964 23.9266C96.751 23.4457 96.7761 23.3973 97.2346 23.2716C97.5069 23.1972 98.4935 23.0827 99.4269 23.0175L101.124 22.8988L101.381 23.3839C101.522 23.6506 101.888 24.0226 102.195 24.2108C102.665 24.4988 102.968 24.5375 104.123 24.4568C105.253 24.3777 105.571 24.2935 105.941 23.9757C106.855 23.1903 106.724 22.1124 105.658 21.6524C105.36 21.5238 104.05 21.277 102.749 21.1042C99.5464 20.6793 98.4216 20.211 97.4214 18.8858C96.9739 18.2931 96.9126 18.0721 96.8171 16.7054C96.7193 15.307 96.7467 15.1164 97.1567 14.3399ZM111.811 15.6634C111.647 13.3066 112.879 11.6427 115.503 10.6772C115.986 10.4995 117.03 10.3639 118.52 10.2853C120.782 10.1658 120.809 10.169 122.116 10.705C123.761 11.3797 124.809 12.4583 125.229 13.9087C125.371 14.4013 125.352 14.4282 124.748 14.5718C124.402 14.654 123.478 14.7666 122.695 14.8219C121.291 14.9208 121.267 14.9155 120.953 14.4441C120.447 13.6832 119.636 13.3565 118.457 13.4383C116.122 13.6001 115.336 15.6321 117.346 16.3116C117.674 16.4222 118.761 16.6107 119.762 16.7302C123.013 17.1189 124.668 17.7575 125.537 18.9587C125.905 19.4676 125.988 19.7842 126.072 20.9859C126.16 22.2328 126.122 22.51 125.772 23.2145C125.013 24.7392 123.516 25.8589 121.549 26.3735C120.208 26.7244 116.93 26.7819 115.934 26.4719C114.626 26.0646 113.381 25.273 112.792 24.4736C112.23 23.7116 111.716 22.5076 111.875 22.3248C111.922 22.27 112.915 22.1354 114.08 22.0257L116.199 21.8262L116.497 22.3616C116.687 22.7014 117.079 23.0203 117.569 23.2342C118.219 23.518 118.521 23.5468 119.482 23.4164C120.746 23.2449 121.381 22.8456 121.592 22.0884C121.759 21.4912 121.424 20.895 120.76 20.6087C120.475 20.4857 119.156 20.2369 117.828 20.0558C114.406 19.5892 113.268 19.0618 112.293 17.4907C111.997 17.0128 111.873 16.5435 111.811 15.6634ZM131.515 11.767C131.89 10.9138 132.662 10.0724 133.524 9.5792C134.229 9.17552 134.53 9.10837 135.858 9.0579C137.217 9.00617 137.477 9.04876 138.242 9.44975C138.825 9.75495 139.283 10.1679 139.665 10.7334C139.975 11.1921 140.266 11.567 140.313 11.5666C140.359 11.5662 140.528 11.2753 140.688 10.92C141.054 10.1092 142.314 9.00059 143.247 8.66745C144.222 8.31951 146.567 8.29743 147.346 8.62864C148.233 9.00571 149.255 9.91235 149.732 10.7456C150.135 11.4483 150.167 11.7006 150.651 17.8783L151.153 24.2826L148.974 24.4349L146.796 24.5872L146.36 19.0742C145.943 13.8089 145.906 13.5416 145.546 13.123C144.879 12.3496 144.323 12.0966 143.401 12.1471C142.473 12.198 141.951 12.5249 141.378 13.4145C141.079 13.8793 141.08 14.1474 141.402 19.421L141.74 24.9408L139.579 25.0919L137.418 25.243L136.98 19.7301C136.562 14.4666 136.525 14.1974 136.164 13.7791C135.516 13.0271 134.911 12.736 134.113 12.7918C133.194 12.8561 132.398 13.3788 132 14.18C131.719 14.7442 131.719 15.1399 131.99 20.1512L132.282 25.518L130.065 25.7199L127.849 25.9219L127.286 17.8756L126.723 9.82933L128.901 9.67704L131.079 9.52474L131.182 10.9064C131.284 12.2668 131.289 12.2801 131.515 11.767ZM163.404 9.60965C163.815 8.68109 164.767 7.70724 165.685 7.27862C166.724 6.79299 168.878 6.604 169.997 6.90011C171.644 7.33564 173.09 8.92405 173.58 10.8346C173.728 11.4101 173.988 14.0545 174.21 17.2299L174.589 22.6438L172.327 22.8019L170.065 22.9601L169.71 17.8754C169.339 12.5737 169.236 12.0097 168.512 11.3104C166.923 9.77633 164.099 10.7191 163.648 12.9343C163.572 13.3042 163.661 15.616 163.86 18.4698L164.202 23.3701L161.94 23.5282L159.679 23.6864L159.116 15.6449L158.554 7.60351L160.732 7.45122L162.91 7.29892L163.02 8.7643L163.129 10.2297L163.404 9.60965ZM153.223 24.0536L152.62 16.0571L152.017 8.06061L154.28 7.90236L156.544 7.74409L157.106 15.7904L157.669 23.8367L155.446 23.9452L153.223 24.0536ZM91.1018 19.4983C90.7448 17.5423 90.036 16.4292 88.8717 15.9955C87.617 15.5284 86.2524 15.8443 85.5087 16.7744C84.1508 18.4726 84.2509 22.4051 85.6992 24.2663C87.1732 26.1605 89.838 25.7321 90.8105 23.4444C91.1899 22.5519 91.3252 20.7212 91.1018 19.4983Z" fill="#021105"/>
</svg>
