<svg width="12" height="12" viewBox="0 0 12 12" fill="none" xmlns="http://www.w3.org/2000/svg">
<path d="M6 5.4C6.79565 5.4 7.55871 5.71607 8.12132 6.27868C8.68393 6.84129 9 7.60435 9 8.4V11C9 11.5523 8.55229 12 8 12H4C3.44772 12 3 11.5523 3 11V8.4C3 7.60435 3.31607 6.84129 3.87868 6.27868C4.44129 5.71607 5.20435 5.4 6 5.4ZM1.9728 7.2036C1.87731 7.52567 1.82091 7.85806 1.8048 8.1936L1.8 8.4V12C0.805888 12 5.47902e-08 11.1941 5.47902e-08 10.2V9.3C-0.000118084 8.78254 0.190817 8.28326 0.536181 7.89793C0.881545 7.51259 1.35702 7.26833 1.8714 7.212L1.9728 7.2036ZM10.0272 7.2036C10.5611 7.23615 11.0626 7.47117 11.4292 7.86074C11.7958 8.25031 11.9999 8.76506 12 9.3V10.2C12 11.1941 11.1941 12 10.2 12V8.4C10.2 7.9842 10.14 7.5828 10.0272 7.2036ZM2.1 3.6C2.49782 3.6 2.87936 3.75804 3.16066 4.03934C3.44196 4.32064 3.6 4.70218 3.6 5.1C3.6 5.49782 3.44196 5.87936 3.16066 6.16066C2.87936 6.44196 2.49782 6.6 2.1 6.6C1.70218 6.6 1.32064 6.44196 1.03934 6.16066C0.758035 5.87936 0.6 5.49782 0.6 5.1C0.6 4.70218 0.758035 4.32064 1.03934 4.03934C1.32064 3.75804 1.70218 3.6 2.1 3.6ZM9.9 3.6C10.2978 3.6 10.6794 3.75804 10.9607 4.03934C11.242 4.32064 11.4 4.70218 11.4 5.1C11.4 5.49782 11.242 5.87936 10.9607 6.16066C10.6794 6.44196 10.2978 6.6 9.9 6.6C9.50218 6.6 9.12064 6.44196 8.83934 6.16066C8.55803 5.87936 8.4 5.49782 8.4 5.1C8.4 4.70218 8.55803 4.32064 8.83934 4.03934C9.12064 3.75804 9.50218 3.6 9.9 3.6ZM6 0C6.63652 0 7.24697 0.252856 7.69706 0.702944C8.14714 1.15303 8.4 1.76348 8.4 2.4C8.4 3.03652 8.14714 3.64697 7.69706 4.09706C7.24697 4.54714 6.63652 4.8 6 4.8C5.36348 4.8 4.75303 4.54714 4.30294 4.09706C3.85286 3.64697 3.6 3.03652 3.6 2.4C3.6 1.76348 3.85286 1.15303 4.30294 0.702944C4.75303 0.252856 5.36348 0 6 0Z" fill="black"/>
</svg>
