<svg width="14" height="16" viewBox="0 0 14 16" fill="none" xmlns="http://www.w3.org/2000/svg">
<path d="M2.72534 11.883L7.27457 14.5095C6.2515 15.2891 4.96254 15.6345 3.6867 15.4708C2.90704 14.4478 2.56166 13.1588 2.72534 11.883ZM10.8452 12.072L11.2937 14.2951L10.5711 15.5467L0.178803 9.54669L0.901428 8.29507L3.05097 7.57196L5.22784 3.8015C6.38291 1.80086 8.65773 0.798224 11.0237 1.00654C11.6347 1.06034 12.1925 1.3824 12.5446 1.88465C13.908 3.82949 14.1771 6.30086 13.0221 8.3015L10.8452 12.072ZM8.37495 7.35054C8.71948 7.54945 9.12891 7.60335 9.51318 7.50039C9.89745 7.39742 10.2251 7.14602 10.424 6.8015C10.6229 6.45697 10.6768 6.04754 10.5738 5.66327C10.4709 5.279 10.2195 4.95137 9.87495 4.75246C9.53043 4.55355 9.12099 4.49965 8.73673 4.60261C8.35246 4.70558 8.02483 4.95697 7.82592 5.3015C7.627 5.64603 7.5731 6.05546 7.67607 6.43973C7.77903 6.824 8.03043 7.15162 8.37495 7.35054Z" fill="#020A03"/>
</svg>
