<svg width="18" height="18" viewBox="0 0 18 18" fill="none" xmlns="http://www.w3.org/2000/svg">
<path d="M7.07499 14.25C5.20833 14.25 3.69166 12.7333 3.69166 10.8667V10.575C3.69166 10.4 3.57499 10.225 3.39999 10.1083C2.87499 9.93333 2.58333 9.525 2.58333 9C2.58333 8.475 2.87499 8.06667 3.39999 7.89167C3.57499 7.83333 3.69166 7.65833 3.69166 7.48333V7.13333C3.69166 5.26667 5.20833 3.75 7.07499 3.75C7.71666 3.75 8.24166 4.275 8.24166 4.91667C8.24166 5.55833 7.71666 6.08333 7.07499 6.08333C6.49166 6.08333 6.02499 6.55 6.02499 7.13333V7.425C6.02499 8.00833 6.02499 9.93333 6.02499 10.5167V10.8083C6.02499 11.3917 6.49166 11.8583 7.07499 11.8583C7.71666 11.8583 8.24166 12.3833 8.24166 13.025C8.24166 13.6667 7.71666 14.25 7.07499 14.25Z" fill="#020A03"/>
<path d="M10.9247 14.25C10.283 14.25 9.75803 13.725 9.75803 13.0833C9.75803 12.4417 10.283 11.9167 10.9247 11.9167C11.508 11.9167 11.9747 11.45 11.9747 10.8667V10.575C11.9747 9.99167 11.9747 8.06667 11.9747 7.48333V7.13333C11.9747 6.55 11.508 6.08333 10.9247 6.08333C10.283 6.08333 9.75803 5.55833 9.75803 4.91667C9.75803 4.275 10.283 3.75 10.9247 3.75C12.7914 3.75 14.308 5.26667 14.308 7.13333V7.425C14.308 7.6 14.4247 7.775 14.5997 7.89167C15.1247 8.06667 15.4164 8.475 15.4164 9C15.4164 9.525 15.1247 9.93333 14.5997 10.1083C14.4247 10.1667 14.308 10.3417 14.308 10.575V10.8667C14.308 12.7333 12.7914 14.25 10.9247 14.25Z" fill="#020A03"/>
</svg>
