<svg width="12" height="14" viewBox="0 0 12 14" fill="none" xmlns="http://www.w3.org/2000/svg">
<path d="M1.91667 9.25H8.33333C8.48804 9.25 8.63642 9.19074 8.74581 9.08525C8.85521 8.97976 8.91667 8.83668 8.91667 8.6875C8.91667 8.53832 8.85521 8.39524 8.74581 8.28975C8.63642 8.18426 8.48804 8.125 8.33333 8.125H3.66667C2.89312 8.125 2.15125 7.82868 1.60427 7.30124C1.05729 6.77379 0.75 6.05842 0.75 5.3125C0.75 4.56658 1.05729 3.85121 1.60427 3.32376C2.15125 2.79632 2.89312 2.5 3.66667 2.5H4.83333V0.25H7.16667V2.5H10.0833V4.75H3.66667C3.51196 4.75 3.36358 4.80926 3.25419 4.91475C3.14479 5.02024 3.08333 5.16332 3.08333 5.3125C3.08333 5.46168 3.14479 5.60476 3.25419 5.71025C3.36358 5.81574 3.51196 5.875 3.66667 5.875H8.33333C9.10688 5.875 9.84875 6.17132 10.3957 6.69876C10.9427 7.22621 11.25 7.94158 11.25 8.6875C11.25 9.43342 10.9427 10.1488 10.3957 10.6762C9.84875 11.2037 9.10688 11.5 8.33333 11.5H7.16667V13.75H4.83333V11.5H1.91667V9.25Z" fill="black"/>
</svg>
