<svg width="12" height="13" viewBox="0 0 12 13" fill="none" xmlns="http://www.w3.org/2000/svg">
<path fill-rule="evenodd" clip-rule="evenodd" d="M4.774 0.225199C5.44853 -0.0750663 6.20266 -0.0750663 6.87719 0.225199L6.88742 0.229877L10.4939 1.91943C10.4985 1.92159 10.5031 1.92381 10.5076 1.92609C11.3156 2.3307 11.7944 3.21986 11.6365 4.17309C11.3367 6.03404 10.4287 9.70251 7.06288 12.3994L7.05662 12.4044C6.32232 12.9764 5.32887 12.9763 4.59457 12.4043L4.58827 12.3994C1.22163 9.70188 0.314063 6.03225 0.0144477 4.17169C0.0123088 4.15843 0.0106327 4.14509 0.00941547 4.13171C-0.0653095 3.30843 0.301802 2.33821 1.21627 1.91902L4.76043 0.23144C4.76494 0.229301 4.76945 0.227221 4.774 0.225199Z" fill="#020A03"/>
</svg>
