<svg width="16" height="8" viewBox="0 0 16 8" fill="none" xmlns="http://www.w3.org/2000/svg">
<path fill-rule="evenodd" clip-rule="evenodd" d="M3.44304 0.0159087C2.99454 0.056633 2.49347 0.207851 2.05388 0.435139C1.02549 0.966795 0.29475 1.92981 0.0490037 3.07723C0.00850344 3.26621 -0.00155159 3.43372 0.000184938 3.88948C0.00228557 4.43976 0.00598273 4.47709 0.0891118 4.78653C0.290437 5.53581 0.641494 6.1266 1.199 6.65433C2.59774 7.97835 4.76579 8.04361 6.26439 6.80684C6.37634 6.71444 6.71686 6.38878 7.02112 6.08315C7.32678 5.7761 7.32612 5.27954 7.01965 4.9733L6.94357 4.89727C6.59607 4.55003 6.0334 4.54854 5.68407 4.89394L5.66349 4.91428C5.03644 5.53427 5.00135 5.56399 4.74543 5.69134C4.59906 5.76419 4.39115 5.84209 4.28329 5.86444C4.02956 5.91706 3.57513 5.91659 3.34972 5.86346C2.64665 5.6977 2.0734 5.16585 1.84101 4.46365C1.77684 4.26975 1.76657 4.19057 1.76469 3.87547C1.76144 3.33026 1.88367 2.96467 2.20624 2.55457C2.59452 2.06097 3.16842 1.78884 3.82115 1.78884C4.19036 1.78884 4.4619 1.85329 4.78148 2.0168C5.00555 2.13144 5.07299 2.19572 7.37823 4.49087C9.12172 6.22675 9.80026 6.88464 9.955 6.98928C10.4305 7.31077 10.8775 7.50304 11.4202 7.61945C11.7954 7.69991 12.5045 7.70641 12.8774 7.63275C13.4185 7.52587 13.9872 7.27808 14.4404 6.95178C14.725 6.74687 15.1619 6.29411 15.3555 6.00353C15.6245 5.59959 15.8287 5.11818 15.9372 4.6317C15.997 4.36374 16.0207 3.61998 15.9789 3.32499C15.7462 1.68261 14.516 0.388953 12.8754 0.0612824C12.5077 -0.0121278 11.7975 -0.00515366 11.4202 0.0756227C10.8777 0.191746 10.4746 0.362037 10.0093 0.671811C9.81017 0.804374 9.5805 1.01029 9.07868 1.50624L9.04978 1.5348C8.69837 1.88205 8.69668 2.44896 9.04602 2.7983C9.39283 3.14511 9.95475 3.14633 10.3031 2.80103L10.3252 2.77903C10.9603 2.14954 10.9843 2.12926 11.2434 2.00375C11.5817 1.83985 11.7981 1.78977 12.1702 1.78926C13.1042 1.78795 13.8768 2.36397 14.1607 3.27329C14.2554 3.57645 14.2553 4.1192 14.1606 4.42094C13.9803 4.995 13.6342 5.41249 13.114 5.68333C12.8111 5.84105 12.5346 5.90617 12.1702 5.90567C11.7991 5.90516 11.5827 5.85528 11.2434 5.69207L10.9773 5.56407L8.63861 3.2336C7.35232 1.95185 6.22932 0.85028 6.14308 0.785665C5.36459 0.202557 4.4037 -0.0713656 3.44304 0.0159087Z" fill="#020A03"/>
</svg>
