<svg width="125" height="20" viewBox="0 0 125 20" fill="none" xmlns="http://www.w3.org/2000/svg">
<path fill-rule="evenodd" clip-rule="evenodd" d="M8.678 0.00700128C8.6441 0.0150368 8.51933 0.0437614 8.40071 0.0708851C8.2821 0.097978 8.11557 0.15084 8.03066 0.188339C7.94575 0.225807 7.19708 0.648426 6.36696 1.12745C5.53683 1.60647 4.03965 2.46962 3.03989 3.0456C2.04013 3.62154 1.13896 4.15148 1.03729 4.22321C0.540395 4.57385 0.165816 5.15931 0.0494489 5.76708C-0.016483 6.11144 -0.016483 13.879 0.0494489 14.2233C0.165816 14.8311 0.540395 15.4165 1.03729 15.7672C1.13896 15.839 1.99854 16.345 2.94746 16.8917C3.89639 17.4384 5.39335 18.3015 6.27404 18.8096C7.15475 19.3178 7.94501 19.7641 8.03017 19.8016C8.33481 19.9354 8.59321 19.984 9.00149 19.984C9.42491 19.984 9.67794 19.934 10.0028 19.786C10.1045 19.7397 11.075 19.1894 12.1594 18.5631C13.2439 17.9368 14.7274 17.0809 15.456 16.6611C16.1847 16.2413 16.8656 15.8381 16.9692 15.765C17.2816 15.5447 17.5484 15.2301 17.722 14.8774C18.0046 14.3033 17.9824 14.7189 17.9824 9.99521C17.9824 6.09383 17.9789 5.81055 17.9277 5.62339C17.7664 5.03394 17.3763 4.48768 16.8887 4.16844C16.7955 4.10742 16.0052 3.64589 15.1325 3.14279C14.2599 2.63966 12.7769 1.78457 11.837 1.24259C10.8972 0.70058 10.0584 0.226516 9.97306 0.189078C9.71008 0.0736869 9.43196 0.0161454 9.07852 0.0040459C8.89212 -0.00235788 8.71189 -0.00100345 8.678 0.00700128ZM67.3927 1.8705C66.2091 2.00809 65.3671 2.76214 65.0929 3.93009C65.0775 3.99566 64.6876 6.43603 64.3967 8.28651C64.2338 9.32318 63.9016 11.4255 63.8396 11.8117C63.8057 12.0233 63.7512 12.3628 63.7185 12.566C63.6858 12.7692 63.609 13.2541 63.5477 13.6435C63.3233 15.0713 63.2562 15.4962 62.9666 17.3226C62.8042 18.3471 62.6576 19.2684 62.6407 19.37C62.6238 19.4716 62.61 19.5859 62.6099 19.624L62.6097 19.6932H63.9618H65.3138L65.3501 19.4392C65.3951 19.1236 65.6703 17.2629 65.752 16.7223C65.7852 16.5021 65.8754 15.8925 65.9524 15.3676C66.0862 14.4555 66.1344 14.1302 66.2742 13.1971C66.3084 12.9685 66.3855 12.449 66.4456 12.0426C66.6817 10.4432 66.8105 9.57564 66.9828 8.42505C67.017 8.19645 67.108 7.57994 67.185 7.05501C67.3597 5.86412 67.4394 5.32759 67.481 5.06285C67.4989 4.9493 67.5435 4.797 67.5802 4.72443C67.7482 4.39242 68.1096 4.36724 68.2901 4.67493C68.343 4.7652 68.9745 6.94279 70.2034 11.2728C71.2234 14.8669 72.0767 17.8185 72.1255 17.9219C72.3256 18.3455 72.6394 18.6592 73.0694 18.8654C73.3949 19.0214 73.6221 19.0795 73.9865 19.0998C74.9949 19.156 75.822 18.6548 76.1466 17.7906C76.2159 17.6063 76.986 14.9398 79.1717 7.3167C79.5528 5.98746 79.8867 4.84894 79.9136 4.78669C80.0828 4.3959 80.5279 4.38636 80.6707 4.77046C80.7023 4.85559 80.802 5.49775 80.9095 6.30906C81.0944 7.70348 81.1367 8.02066 81.1877 8.39426C81.2545 8.88375 81.2926 9.16943 81.4666 10.4878C81.5683 11.2583 81.677 12.0826 81.7082 12.3197C81.7394 12.5567 81.9712 14.3058 82.2234 16.2065L82.6819 19.6623L84.0337 19.6624L85.3855 19.6625L85.3672 19.5713C85.3572 19.5212 85.217 18.5618 85.0557 17.4393C84.8944 16.3168 84.6163 14.387 84.4379 13.1509C84.2594 11.9148 84.0237 10.28 83.9141 9.518C83.2653 5.00531 83.1219 4.04572 83.0649 3.83773C82.7659 2.74579 81.9779 2.05021 80.8697 1.9C80.5447 1.85594 80.3044 1.85914 79.9553 1.91213C79.475 1.98506 79.0256 2.1615 78.6864 2.41033C78.424 2.60278 78.1232 2.95576 77.9754 3.24457C77.8217 3.54472 77.7665 3.70386 77.5824 4.3765C77.3998 5.04333 76.9722 6.598 76.7354 7.45525C76.6232 7.86164 76.4915 8.33961 76.4428 8.51741C76.3941 8.69521 76.2969 9.04849 76.2268 9.30249C75.7574 11.0031 75.7041 11.1968 74.9219 14.0438C74.2689 16.4202 74.3045 16.3141 74.1555 16.3316C74.0213 16.3474 73.9526 16.2878 73.9038 16.1135C73.879 16.025 73.7825 15.6755 73.6893 15.3368C73.5961 14.9982 73.3724 14.1877 73.1923 13.5358C73.0121 12.8838 72.7749 12.0249 72.6651 11.6269C72.5554 11.229 72.4116 10.7095 72.3456 10.4724C72.2796 10.2353 72.134 9.70888 72.0221 9.30249C71.9102 8.8961 71.7646 8.36963 71.6987 8.13257C71.4808 7.34937 70.936 5.37331 70.7437 4.66898C70.6397 4.28799 70.5191 3.86543 70.4757 3.72997C70.1251 2.63452 69.3184 1.98808 68.1529 1.86856C67.8046 1.83285 67.7148 1.83306 67.3927 1.8705ZM24.9453 2.19494C24.417 2.30276 24.1703 2.39657 23.8889 2.5965C23.5306 2.85111 23.2886 3.24704 23.1655 3.78009L23.0988 4.06863L23.0887 10.6571C23.082 15.0265 23.0893 17.3649 23.1104 17.5997C23.1708 18.2711 23.3356 18.6832 23.6858 19.0385C24.0201 19.3778 24.4443 19.5619 25.0531 19.6319C25.2133 19.6503 27.2636 19.6621 30.3292 19.6622L35.3434 19.6625V18.4464V17.2302H30.5526H25.7618V14.6749V12.1195H30.1983H34.6348V10.9034V9.68733H30.1983H25.7618V7.13198V4.57662H30.4602H35.1586V3.37591V2.1752L30.0828 2.17878C27.2911 2.18075 24.9792 2.18801 24.9453 2.19494ZM9.55224 2.37896C9.88036 2.45155 10.1082 2.56651 11.3738 3.29802C12.0431 3.68493 13.083 4.2851 13.6845 4.63176C14.9329 5.35117 15.0867 5.45317 15.3367 5.72681C15.6203 6.03724 15.8007 6.37279 15.9192 6.81059C15.9866 7.05954 16.0126 7.73778 15.9585 7.83766C15.9363 7.87866 15.8281 7.96736 15.7179 8.03476C15.2304 8.33315 14.0664 9.01355 12.4829 9.92575C11.5425 10.4675 10.4549 11.0997 10.0661 11.3307C9.32983 11.7679 9.25154 11.8037 8.96847 11.8325C8.65708 11.8642 8.4566 11.7824 7.7075 11.3178C6.24489 10.4107 4.9664 9.64814 4.88614 9.63499C4.815 9.62333 4.76925 9.63847 4.70252 9.69583C4.61733 9.76907 4.61311 9.78524 4.601 10.0868C4.59404 10.2598 4.59857 10.7822 4.61104 11.2476L4.63372 12.0938L4.73311 12.1914C4.78777 12.245 5.33035 12.593 5.9388 12.9647C8.75708 14.6862 8.53387 14.5653 8.89366 14.5657C9.19938 14.5662 9.31147 14.5169 10.0952 14.0375C10.4002 13.851 11.2598 13.3273 12.0054 12.8736C12.751 12.4201 13.8547 11.7475 14.458 11.3792C15.8026 10.5583 15.7314 10.5963 15.8417 10.642C15.9948 10.7053 16.0012 10.7611 15.9876 11.924C15.9743 13.0707 15.9688 13.1176 15.797 13.5424C15.6334 13.9472 15.3176 14.3476 14.967 14.5947C14.8099 14.7055 12.4011 16.1078 10.5083 17.1904C10.2356 17.3464 9.91902 17.5011 9.77619 17.5483C9.2052 17.7369 8.55001 17.7059 8.00478 17.4643C7.91753 17.4257 7.39556 17.1337 6.84484 16.8155C6.29413 16.4974 5.25431 15.8974 4.53414 15.4823C3.07917 14.6436 3.01703 14.6046 2.78199 14.3839C2.38627 14.0123 2.12455 13.4989 2.04047 12.9295C1.9957 12.6263 1.9957 7.36415 2.04047 7.06092C2.12455 6.49151 2.38627 5.97816 2.78199 5.60652C3.00036 5.40145 3.10971 5.32953 3.85634 4.89995C4.20371 4.70008 5.24291 4.10022 6.16568 3.56689C7.08845 3.03359 7.91543 2.5654 8.00343 2.52652C8.48599 2.31326 9.02365 2.26203 9.55224 2.37896ZM102.076 5.19169V6.85421L100.806 6.86225L99.5346 6.87029L99.5266 7.98633L99.5185 9.10237H100.797H102.076V12.344C102.076 15.8966 102.079 15.956 102.261 16.6574C102.47 17.4634 102.837 18.1375 103.351 18.6607C104.1 19.4224 105.074 19.8494 106.343 19.9733C107.416 20.0779 108.472 19.8739 109.371 19.3885L109.563 19.2844V18.0884V16.8924L109.387 17.0046C108.872 17.3343 108.154 17.5708 107.502 17.6258C106.089 17.7453 105.103 17.1066 104.753 15.8448L104.681 15.5831L104.672 12.3427L104.663 9.10237H107.113H109.563V7.97863V6.85489H107.114H104.665L104.657 5.20007L104.649 3.54524L103.363 3.53721L102.076 3.52917V5.19169ZM8.49625 5.62509C8.01452 5.9011 6.06115 7.10606 5.99913 7.16544C5.91924 7.24192 5.91924 7.42197 5.99913 7.49961C6.03215 7.53175 6.35035 7.72716 6.7062 7.9339C7.06205 8.1406 7.48491 8.40051 7.64588 8.51144C7.80686 8.6224 8.02431 8.77168 8.12913 8.84324C8.40244 9.02981 8.63255 9.11013 8.89366 9.11013C9.178 9.11013 9.39382 9.02605 9.7696 8.76885C10.361 8.36406 10.5995 8.21265 11.1787 7.87426C11.5035 7.68449 11.7871 7.5078 11.8088 7.48166C11.8606 7.41932 11.8594 7.24346 11.8067 7.18007C11.7572 7.12046 11.545 6.98799 10.1177 6.12585C8.8391 5.35351 8.92425 5.37984 8.49625 5.62509ZM92.1558 6.51592C90.6319 6.63415 89.2962 7.22049 88.2357 8.23678C86.8692 9.5462 86.1485 11.4082 86.2203 13.4434C86.2416 14.0462 86.2919 14.4236 86.4236 14.9674C86.9764 17.2506 88.6585 19.0033 90.925 19.6577C92.2958 20.0535 93.8581 20.038 95.1755 19.6157C96.4759 19.1988 97.6086 18.3271 98.3553 17.1687C98.5471 16.8711 98.7034 16.5884 98.6847 16.573C98.6703 16.5613 97.5909 16.0061 97.0562 15.7356C96.8332 15.6227 96.6993 15.5704 96.6917 15.5932C96.6851 15.613 96.6138 15.7301 96.5332 15.8534C95.8422 16.9111 94.7211 17.5334 93.3372 17.6273C91.971 17.72 90.8122 17.3135 89.9346 16.4337C89.4556 15.9535 89.1529 15.467 88.9336 14.8245C88.8294 14.5192 88.736 14.1217 88.736 13.9835V13.9052H93.8503H98.9647L98.9643 13.2202C98.964 12.4889 98.9141 11.8881 98.8123 11.389C98.2648 8.70426 96.3004 6.88445 93.5884 6.54954C93.2193 6.50398 92.5211 6.48757 92.1558 6.51592ZM52.6891 6.56475C52.1948 6.62115 51.9802 6.65422 51.6782 6.72063C49.2878 7.24617 47.3873 9.00773 46.7004 11.3345C46.4876 12.0552 46.4505 12.3422 46.4516 13.2587C46.4524 13.9591 46.4621 14.1274 46.5197 14.448C46.784 15.919 47.4004 17.1392 48.3758 18.1227C49.3064 19.0609 50.3944 19.6284 51.75 19.8825C52.0613 19.9409 52.2276 19.9519 52.8123 19.9531C53.5404 19.9545 53.7683 19.931 54.2958 19.8C55.6211 19.4709 56.7191 18.7184 57.47 17.6245L57.6032 17.4304L57.6112 18.5464L57.6193 19.6625H58.8371H60.0549L60.0439 16.0218C60.0332 12.4519 60.0317 12.3746 59.967 12.0391C59.6903 10.604 59.1073 9.47598 58.1452 8.51458C57.1225 7.49265 55.8368 6.85714 54.322 6.62479C54.0162 6.57787 52.9255 6.53775 52.6891 6.56475ZM116.788 6.5653C116.377 6.60693 115.904 6.68845 115.551 6.77866C113.35 7.34149 111.594 8.97094 110.87 11.1236C110.475 12.2978 110.429 13.7738 110.748 15.0136C111.248 16.9563 112.465 18.4988 114.154 19.3291C114.729 19.6122 115.342 19.8027 116.033 19.9131C116.374 19.9675 117.532 19.968 117.866 19.9138C118.513 19.809 118.959 19.6657 119.561 19.369C120.393 18.9586 121.154 18.2921 121.615 17.5706L121.702 17.4337V18.5481V19.6625H122.934H124.167V16.2439C124.167 14.1044 124.155 12.7134 124.135 12.5263C123.986 11.1274 123.449 9.86836 122.564 8.83969C121.542 7.65321 120.099 6.87903 118.436 6.62537C118.127 6.57824 117.048 6.53892 116.788 6.5653ZM42.4604 6.65299C40.993 6.86323 39.8736 7.52846 39.1271 8.63391C38.7972 9.12241 38.5021 9.82585 38.3624 10.4569C38.2084 11.1519 38.2087 11.1429 38.2087 15.5427V19.6625H39.5027H40.7967L40.7968 15.6678C40.7969 12.2178 40.8033 11.6364 40.8441 11.4035C41.051 10.2213 41.7104 9.45396 42.755 9.17974C43.5245 8.97771 44.5664 9.10751 45.3642 9.50476L45.6029 9.62366V8.34534V7.06702L45.441 6.99547C45.1812 6.88063 44.7953 6.76786 44.4236 6.69806C43.9768 6.6142 42.9032 6.58953 42.4604 6.65299ZM93.5114 8.90056C94.2902 9.0662 94.9791 9.4395 95.4452 9.94841C95.9726 10.5241 96.2488 11.1664 96.3624 12.0811L96.3825 12.2427H92.6054C89.0287 12.2427 88.8284 12.2398 88.8287 12.1888C88.8288 12.1592 88.869 11.9734 88.918 11.776C89.2001 10.6394 89.8922 9.73262 90.8498 9.24492C91.2401 9.04619 91.7239 8.90112 92.1866 8.84413C92.4173 8.81571 93.2866 8.85275 93.5114 8.90056ZM53.8444 9.02494C54.4119 9.10705 54.9073 9.27749 55.366 9.54839C56.4122 10.1662 57.1234 11.1688 57.3929 12.406C57.4705 12.7624 57.4711 13.7544 57.3939 14.1053C57.0157 15.8243 55.7879 17.0622 54.0909 17.4356C53.7999 17.4997 53.0184 17.5241 52.6841 17.4797C50.9042 17.243 49.4896 15.9164 49.0945 14.1136C49.0514 13.9167 49.0387 13.7231 49.0385 13.2587C49.0382 12.7418 49.0482 12.6138 49.1098 12.3386C49.2976 11.5004 49.6645 10.8323 50.2705 10.2252C50.9814 9.51295 51.7617 9.13467 52.7969 9.00043C53.021 8.97137 53.5617 8.98403 53.8444 9.02494ZM118.214 9.06771C118.611 9.15243 118.864 9.23984 119.214 9.41246C119.648 9.62656 119.948 9.84306 120.318 10.2104C120.938 10.8246 121.328 11.5582 121.508 12.4499C121.59 12.8562 121.583 13.7254 121.494 14.1264C121.149 15.6802 120.11 16.8396 118.636 17.317C118.182 17.464 117.977 17.4919 117.358 17.4919C116.728 17.4919 116.534 17.4645 116.046 17.3062C114.567 16.8266 113.452 15.5385 113.182 13.9976C113.114 13.6099 113.114 12.9075 113.182 12.5198C113.283 11.9401 113.512 11.3691 113.847 10.8556C114.073 10.5095 114.645 9.92788 114.97 9.71372C115.545 9.33451 116.153 9.10037 116.792 9.01207C117.119 8.96688 117.881 8.99668 118.214 9.06771Z" fill="white"/>
</svg>
