<svg width="181" height="43" viewBox="0 0 181 43" fill="none" xmlns="http://www.w3.org/2000/svg">
<path d="M180.247 23.5652C180.283 23.1525 179.978 22.7887 179.566 22.7525L172.841 22.1628C172.429 22.1266 172.065 22.4317 172.029 22.8444C171.992 23.257 172.298 23.6208 172.71 23.657L178.687 24.1813L178.163 30.1583C178.127 30.5709 178.432 30.9348 178.845 30.971C179.257 31.0072 179.621 30.702 179.657 30.2894L180.247 23.5652ZM0.875043 1.41422C18.325 27.7158 55.3843 39.8689 91.7636 42.2483C109.982 43.4399 128.097 42.1865 143.612 39.0002C159.106 35.8183 172.092 30.6916 179.982 24.0743L179.018 22.925C171.408 29.308 158.707 34.369 143.31 37.5309C127.935 40.6884 109.955 41.935 91.8615 40.7515C55.6157 38.3808 19.175 26.2836 2.12497 0.584947L0.875043 1.41422Z" fill="#68D8C6"/>
</svg>
